<svg id="visual" viewBox="0 0 960 300" width="960" height="300" xmlns="http://www.w3.org/2000/svg" xmlns:xlink="http://www.w3.org/1999/xlink" version="1.1"><rect x="0" y="0" width="960" height="300" fill="#001220"></rect><path d="M0 134L22.8 128.3C45.7 122.7 91.3 111.3 137 107.2C182.7 103 228.3 106 274 113.3C319.7 120.7 365.3 132.3 411.2 141.5C457 150.7 503 157.3 548.8 161.3C594.7 165.3 640.3 166.7 686 157.8C731.7 149 777.3 130 823 121.2C868.7 112.3 914.3 113.7 937.2 114.3L960 115L960 301L937.2 301C914.3 301 868.7 301 823 301C777.3 301 731.7 301 686 301C640.3 301 594.7 301 548.8 301C503 301 457 301 411.2 301C365.3 301 319.7 301 274 301C228.3 301 182.7 301 137 301C91.3 301 45.7 301 22.8 301L0 301Z" fill="#715df2"></path><path d="M0 150L22.8 156.3C45.7 162.7 91.3 175.3 137 180C182.7 184.7 228.3 181.3 274 182.5C319.7 183.7 365.3 189.3 411.2 185C457 180.7 503 166.3 548.8 158.8C594.7 151.3 640.3 150.7 686 157.7C731.7 164.7 777.3 179.3 823 184.5C868.7 189.7 914.3 185.3 937.2 183.2L960 181L960 301L937.2 301C914.3 301 868.7 301 823 301C777.3 301 731.7 301 686 301C640.3 301 594.7 301 548.8 301C503 301 457 301 411.2 301C365.3 301 319.7 301 274 301C228.3 301 182.7 301 137 301C91.3 301 45.7 301 22.8 301L0 301Z" fill="#6c50f6"></path><path d="M0 197L22.8 196.2C45.7 195.3 91.3 193.7 137 192.2C182.7 190.7 228.3 189.3 274 187.3C319.7 185.3 365.3 182.7 411.2 181.5C457 180.3 503 180.7 548.8 186.3C594.7 192 640.3 203 686 208.7C731.7 214.3 777.3 214.7 823 208.5C868.7 202.3 914.3 189.7 937.2 183.3L960 177L960 301L937.2 301C914.3 301 868.7 301 823 301C777.3 301 731.7 301 686 301C640.3 301 594.7 301 548.8 301C503 301 457 301 411.2 301C365.3 301 319.7 301 274 301C228.3 301 182.7 301 137 301C91.3 301 45.7 301 22.8 301L0 301Z" fill="#6940fa"></path><path d="M0 230L22.8 232.7C45.7 235.3 91.3 240.7 137 236.8C182.7 233 228.3 220 274 215C319.7 210 365.3 213 411.2 219.3C457 225.7 503 235.3 548.8 239.3C594.7 243.3 640.3 241.7 686 238C731.7 234.3 777.3 228.7 823 227.7C868.7 226.7 914.3 230.3 937.2 232.2L960 234L960 301L937.2 301C914.3 301 868.7 301 823 301C777.3 301 731.7 301 686 301C640.3 301 594.7 301 548.8 301C503 301 457 301 411.2 301C365.3 301 319.7 301 274 301C228.3 301 182.7 301 137 301C91.3 301 45.7 301 22.8 301L0 301Z" fill="#672bfd"></path><path d="M0 278L22.8 272.5C45.7 267 91.3 256 137 254C182.7 252 228.3 259 274 258.8C319.7 258.7 365.3 251.3 411.2 251.7C457 252 503 260 548.8 260.3C594.7 260.7 640.3 253.3 686 253C731.7 252.7 777.3 259.3 823 263.3C868.7 267.3 914.3 268.7 937.2 269.3L960 270L960 301L937.2 301C914.3 301 868.7 301 823 301C777.3 301 731.7 301 686 301C640.3 301 594.7 301 548.8 301C503 301 457 301 411.2 301C365.3 301 319.7 301 274 301C228.3 301 182.7 301 137 301C91.3 301 45.7 301 22.8 301L0 301Z" fill="#6600ff"></path></svg>